<svg fill="none" height="464" width="389" xmlns="http://www.w3.org/2000/svg"><path d="M360 20.583H18v353h342v-353z" fill="#fff"/><path d="M0 463.259V311.522h.137C.201 211.29.16 111.061.013 10.836 0 2.69 1.513-.017 9.1 0c123.387.285 246.774.287 370.161.005 7.465-.014 9.217 2.443 9.186 10.742-.28 71.4-.003 142.794 0 214.194 0 28.859.016 57.719 0 86.581v151.737zm350.3-151.737c3.548-1.053 4.789-3.893 4.765-10.443a34389.46 34389.46 0 0 1-.024-250.452c.027-8.3-1.7-10.8-9.175-10.742-50.446.394-100.9.205-151.345.205s-100.9.172-151.345-.188H42.9c-7.268 0-9.519 2.156-9.486 11.015.309 83.165.309 166.331 0 249.5-.026 6.77 1.043 9.937 4.912 11.109zm-39.024-49.966c-38.767-.18-77.537-.09-116.308-.09-38.209 0-76.421-.006-114.635-.017-8.7-.008-8.921-.4-4.974-8.305 8.056-16.137 16.317-32.177 24.214-48.39 2.561-5.258 4.871-5.96 9.018-1.562 5.718 6.068 12.072 11.554 17.654 17.734 4.588 5.081 7.175 4.154 10.454-1.327 9.825-16.416 20.225-32.492 30-48.936 3.362-5.661 5.672-6.086 10.264-1.148 8.707 9.359 18.387 17.831 26.956 27.3 5.378 5.947 7.673 4.078 11.333-1.552 13.608-20.93 27.622-41.6 41.594-62.3 1.81-2.683 2.949-7.259 6.34-7.139 3.832.137 3.588 5.035 4.773 7.937 16.328 40 32.382 80.114 48.917 120.031 2.857 6.9.824 7.758-5.265 7.758zM109.682 151.53c-13.667 0-25.563-11.36-25.827-24.69-.262-13.178 11.812-25.35 25.21-25.419 14.34-.074 25.414 10.646 25.578 24.759a24.811 24.811 0 0 1-1.733 9.681 24.806 24.806 0 0 1-13.506 13.756 24.8 24.8 0 0 1-9.647 1.912z" fill="#dedede"/><path d="M43.086 415.194h8.54v-18.117c0-5.185-.671-10.858-1.098-15.738h.305l4.575 9.699 13.054 24.156h9.15v-45.14h-8.54v17.995c0 5.124.67 11.102 1.159 15.799h-.305l-4.514-9.76-13.115-24.034h-9.211zm63.624.854c11.956 0 20.191-8.967 20.191-23.607S118.666 369.2 106.71 369.2s-20.19 8.54-20.19 23.241c0 14.64 8.234 23.607 20.19 23.607zm0-7.808c-6.71 0-10.98-6.161-10.98-15.799 0-9.699 4.27-15.494 10.98-15.494s10.98 5.795 10.98 15.494c0 9.638-4.27 15.799-10.98 15.799zm56.648 6.954h9.028v-45.14h-9.028zm20.135 0h8.113v-18.849c0-4.27-.732-10.553-1.159-14.823h.244l3.599 10.614 7.015 18.971h5.185l6.954-18.971 3.66-10.614h.244c-.427 4.27-1.098 10.553-1.098 14.823v18.849h8.235v-45.14h-10.004l-7.503 21.106c-.976 2.806-1.769 5.795-2.745 8.723h-.305c-.915-2.928-1.769-5.917-2.745-8.723l-7.686-21.106h-10.004zm60.544-18.605l1.342-4.941a325.129 325.129 0 0 0 3.843-14.762h.244c1.342 4.88 2.562 10.065 3.965 14.762l1.342 4.941zm15.86 18.605h9.455l-14.518-45.14H244.22l-14.457 45.14h9.15l3.172-11.59h14.64zm33.422.854c6.283 0 11.59-2.44 14.64-5.429v-20.374h-16.043v7.381h7.991v8.906c-1.281 1.098-3.477 1.708-5.673 1.708-8.845 0-13.359-5.917-13.359-15.738 0-9.699 5.246-15.555 12.749-15.555 4.087 0 6.649 1.647 8.845 3.782l4.819-5.734c-2.928-2.989-7.442-5.795-13.969-5.795-12.017 0-21.655 8.723-21.655 23.607 0 15.067 9.333 23.241 21.655 23.241zm24.327-.854h28.365v-7.564h-19.337v-12.078h15.86v-7.564h-15.86v-10.431h18.666v-7.503h-27.694z" fill="#fff"/></svg>