<svg height="248.787" viewBox="0 0 295.451 248.787" width="295.451" xmlns="http://www.w3.org/2000/svg"><path d="m11.678 12.924h268.228v225.467h-268.228z" fill="#fff"/><path d="m602.805 506.543c0 39.293-.089 78.587.117 117.88.023 4.544-1.166 6.006-6.923 6q-140.761-.239-281.53 0c-5.668 0-7-1.322-7-5.944q.251-118.417 0-236.825c0-4.525 1.143-6.026 6.912-6.018q140.767.233 281.53 0c5.676 0 7 1.357 7 5.967-.199 39.642-.111 79.289-.106 118.94zm-147.377-102.668c-38.368 0-76.74.1-115.109-.1-5.695-.031-7.448 1.135-7.425 6.115q.35 69.273 0 138.549c-.027 5.053 1.454 6.5 7.615 6.484q114.79-.274 229.583 0c5.668 0 7.464-1.1 7.437-6.1q-.356-69.541 0-139.078c.019-4.61-1.294-6-7-5.967-38.361.222-76.729.097-115.101.097z" fill="#d6d6d6" transform="translate(-307.471 -381.635)"/><path d="m420.51 485.276h-94.743c-7.188 0-7.386-.257-4.109-5.318 6.659-10.337 13.485-20.6 20.012-30.994 2.115-3.366 4.027-3.817 7.452-1 4.727 3.887 9.975 7.386 14.589 11.359 3.794 3.254 5.928 2.663 8.642-.851 8.121-10.5 16.716-20.809 24.79-31.344 2.779-3.627 4.688-3.887 8.482-.735 7.2 5.994 15.2 11.421 22.278 17.493 4.443 3.81 6.34 2.612 9.365-.995 11.246-13.4 22.827-26.644 34.376-39.9 1.5-1.718 2.437-4.665 5.24-4.572 3.168.089 2.966 3.226 3.946 5.085 13.493 25.618 26.76 51.313 40.429 76.876 2.4 4.5.622 4.988-4.626 4.968-32.033-.148-64.08-.072-96.123-.072z" fill="#d6d6d6" transform="translate(-272.398 -333.175)"/><path d="m340.984 427.942a16.055 16.055 0 0 1 -1.337-32.082c.3-.012.595-.016.89-.012a16.051 16.051 0 1 1 .991 32.086c-.179.004-.362.008-.544.008z" fill="#d6d6d6" transform="translate(-258.991 -340.62)"/><g fill="#fff"><path d="m316.795 432.564h5.866l8.35 15.308 2.877 6.216h.194c-.311-2.993-.739-6.8-.739-10.06v-11.464h5.438v28.751h-5.827l-8.315-15.386-2.916-6.177h-.19c.272 3.11.7 6.721.7 10.022v11.542h-5.434z" transform="translate(-280.549 -234.585)"/><path d="m324.914 447.227c0-9.365 5.248-14.8 12.863-14.8s12.859 5.477 12.859 14.8-5.244 15.036-12.859 15.036-12.863-5.71-12.863-15.036zm19.853 0c0-6.177-2.717-9.87-6.989-9.87s-6.993 3.693-6.993 9.87c0 6.142 2.717 10.061 6.993 10.061s6.989-3.919 6.989-10.061z" transform="translate(-257.107 -234.989)"/><path d="m340.524 432.564h5.749v28.751h-5.749z" transform="translate(-212.035 -234.585)"/><path d="m344.824 432.564h6.376l4.9 13.443c.618 1.784 1.162 3.693 1.745 5.555h.194c.622-1.862 1.127-3.771 1.749-5.555l4.778-13.443h6.371v28.751h-5.248v-12c0-2.721.431-6.721.7-9.443h-.156l-2.333 6.76-4.427 12.082h-3.3l-4.473-12.086-2.293-6.76h-.156c.272 2.721.739 6.721.739 9.443v12h-5.166z" transform="translate(-199.619 -234.585)"/><path d="m370.588 453.933h-9.322l-2.025 7.382h-5.827l9.209-28.751h6.76l9.244 28.751h-6.017zm-1.244-4.467-.855-3.145c-.894-3-1.672-6.3-2.523-9.4h-.156c-.739 3.145-1.6 6.406-2.449 9.4l-.855 3.145z" transform="translate(-174.817 -234.585)"/><path d="m361.284 447.46c0-9.477 6.138-15.036 13.792-15.036a12.1 12.1 0 0 1 8.9 3.693l-3.071 3.65a7.538 7.538 0 0 0 -5.633-2.41c-4.781 0-8.121 3.732-8.121 9.909 0 6.259 2.877 10.022 8.509 10.022a5.786 5.786 0 0 0 3.611-1.085v-5.675h-5.085v-4.7h10.214v12.972a13.525 13.525 0 0 1 -9.322 3.46c-7.85.003-13.794-5.202-13.794-14.8z" transform="translate(-152.094 -234.989)"/><path d="m369.824 432.564h17.637v4.778h-11.888v6.644h10.1v4.82h-10.1v7.694h12.319v4.816h-18.068z" transform="translate(-127.435 -234.585)"/></g></svg>